#!OML:ASF F:\VICON\USERDATA\INSTALL\rory3\rory3.ASF
:FULLY-SPECIFIED
:DEGREES
78
root -0.12524268012172202 17.747785914796335 31.978933247891227 -1.9724922445763948 -4.416476088530596 -6.966830967134664
lfemur -28.975578354316525 5.082232603883414 -12.256678772755219
ltibia 51.90734887995012
lfoot -0.21850135026490491 -2.3959569871710427
ltoes -4.495826487087287
rfemur -1.3828737027590439 5.116469317680987 34.93423723461405
rtibia 29.782962307086834
rfoot -19.08292465585377 -6.214468130245632
rtoes 8.193261566590827
lowerback nan 1.3533901949143265 6.311660084675479
upperback 0.4261779201776588 2.8137523867200613 2.5981680954935986
thorax -4.115343669514684 1.1400945428229095 -0.5657764375644883
lowerneck -15.661572707380266 -2.8213794737071307 -1.4953907558263384
upperneck 20.016309439195645 -4.3361716376887065 1.156228043716116
head 8.898527076356578 -1.8867093265885782 0.07008237159958391
lclavicle -4.542716225874514e-15 -3.28439323941882e-15
lhumerus -32.07374776303575 4.645937763481642 82.84938137109317
lradius 26.21567324924752
lwrist 3.1593463948205907
lhand -28.44983043687636 22.79377513662426
lfingers nan
lthumb -2.0204911135009014 52.58180996892303
rclavicle -3.9079264853608355e-15 -3.4782255998487704e-15
rhumerus -21.450970878589963 -9.00778336493149 -81.4093836938832
rradius 29.671779855177977
rwrist 0.12426704321464754
rhand -18.361169082150962 nan
rfingers nan
rthumb 7.666522803703975 -5.437813650343019
79
root -0.12217988416852343 17.703150841022556 31.714085557760725 -1.363784346857062 -5.365715087393216 -7.5165374682032375
lfemur -29.842788653283012 2.3537088033799325 -11.309284810268464
ltibia 39.24098417041393
lfoot 2.7280578974297223 -4.919038347643336
ltoes -5.088961253128685
rfemur 1.0025505720140497 5.375412423432433 35.52604122474335
rtibia 28.48704914954225
rfoot -19.228421250976147 -6.512316888839219
rtoes 6.686891128105211
lowerback nan 1.5678431878792987 6.872047717294262
upperback 0.3464363787509478 3.3424284360221677 2.6101707773758767
thorax -4.528651453806368 1.3926011512144534 -1.0385131033515211
lowerneck -15.730983598741112 -2.8655649059483457 -1.451629352365575
upperneck 19.801092686736048 -4.4143689522440015 1.0805346409605412
head 8.712353254250651 -1.885784168159207 0.051974646155642075
lclavicle -5.4507446956018526e-15 -3.3230550551273033e-15
lhumerus -33.387315849742286 6.985180554905108 81.68346828122878
lradius 25.218652380682016
lwrist 1.860045492005621
lhand -28.430036860918964 22.38828277272534
lfingers nan
lthumb -2.1563246578023847 51.39966209899394
rclavicle -4.236329392523723e-15 -4.1371565120941435e-15
rhumerus -19.606999565300796 -8.695893292768856 -81.51435122616991
rradius 31.147536559268854
rwrist -0.7474504487229128
rhand -18.88264167103823 nan
rfingers nan
rthumb 7.466738827236214 -4.7141460550081025
80
root -0.07269305860935521 17.670096032940215 33.77720913692884 -0.7631719401934913 -5.849315537329323 -7.4548026373781155
lfemur -29.513472870037184 -1.7889282221086953 -9.958943954489024
ltibia 25.90464975031561
lfoot 3.125384443222429 -8.439979384816953
ltoes -5.976953149591069
rfemur 4.064449539193765 5.525948240758631 35.83542588066681
rtibia 26.91782486421826
rfoot -18.20301118405428 -6.307820238804455
rtoes 5.0030705203174195
lowerback nan 1.8932101000425345 7.164225597627265
upperback 0.21255521082828333 3.6483396755278577 2.4617806383461187
thorax -4.000725239069178 1.5555499277905604 -1.3102748080277933
lowerneck -15.734818378868717 -2.7764120547375897 -1.1758765834899703
upperneck 19.872566784276042 -4.4704021531131986 1.2063860841735474
head 8.6515817518644 -1.8085206412435233 0.1893814220181945
lclavicle -2.3268870926719354e-15 -1.2383580724129133e-15
lhumerus -34.21393766358952 8.954245028779185 80.89291874377773
lradius 23.977795644312085
lwrist 0.6584745837870694
lhand -27.93138339896713 22.31975786311815
lfingers nan
lthumb -1.3800328502070167 52.19908910587646
rclavicle -4.271171623591388e-15 -4.280565857554537e-15
rhumerus -18.23297740430217 -8.497087529269546 -81.7727067952684
rradius 32.34939699517853
rwrist -0.8048656896384969
rhand -18.88841121634664 nan
rfingers nan
rthumb 7.397686381439488 -4.933695487170679
81
root -0.06505429090506215 17.614970241147564 32.717495122130565 -0.6400037268131975 -6.581908779038396 -7.697181712921536
lfemur -27.995647289371156 -7.3211312115369775 -8.541747305404384
ltibia 14.156778270671357
lfoot 0.2819779013075765 -7.967335789157049
ltoes -5.769208235281467
rfemur 5.955834131072232 5.295951844127253 35.18968136107425
rtibia 26.97459169975312
rfoot -17.106680991609736 -5.55236803008186
rtoes 0.9397737952313436
lowerback nan 2.1899948359792303 7.178279481862958
upperback 0.09593376264145648 3.8383083514153684 2.3012717507014453
thorax -4.270740972026859 1.7617880581979206 -1.5232306090355716
lowerneck -15.86453435053192 -2.8211836773132104 -1.2630102550690527
upperneck 19.56821124640255 -4.37499458357085 1.0900941069460623
head 8.559399476094264 -1.7772309614244646 0.19322696158538752
lclavicle -3.202917297711144e-16 1.529762018280234e-16
lhumerus -35.339238206415686 10.730395183642136 79.347598416922
lradius 22.687316815931965
lwrist -0.666623979542547
lhand -28.358145549509455 23.338719786621155
lfingers nan
lthumb -1.4854537601934488 53.599210738033854
rclavicle -4.87233923934123e-16 -9.995562809185207e-16
rhumerus -17.49993760937224 -8.858593238028607 -81.7826106361722
rradius 33.41489552671415
rwrist -0.7601433590241005
rhand -19.181650770277468 nan
rfingers nan
rthumb 7.221395639671627 -5.814980621448335
